<svg xmlns="http://www.w3.org/2000/svg" viewBox="0 0 64 64" role="img" aria-label="PharmFlow">
<defs>
 <linearGradient id="pfBlue" x1="0" y1="0" x2="1" y2="1"><stop offset="0" stop-color="#2A9BFF"/><stop offset=".55" stop-color="#1769D2"/><stop offset="1" stop-color="#123F70"/></linearGradient>
 <linearGradient id="capBlue" x1="0" y1="0" x2="1" y2="1"><stop offset="0" stop-color="#49B7FF"/><stop offset=".55" stop-color="#0879E8"/><stop offset="1" stop-color="#0754B5"/></linearGradient>
 <linearGradient id="capWhite" x1="0" y1="0" x2="1" y2="1"><stop offset="0" stop-color="#fff"/><stop offset="1" stop-color="#D9E8F8"/></linearGradient>
 <filter id="softShadow" x="-30%" y="-30%" width="160%" height="160%"><feDropShadow dx="0" dy="1.5" stdDeviation="1.2" flood-color="#0B3764" flood-opacity=".28"/></filter>
</defs>
<g fill="url(#pfBlue)">
 <rect x="7" y="8" width="3" height="48" rx="1.5"/><rect x="12" y="8" width="2.4" height="48" rx="1.2"/><rect x="17" y="8" width="4" height="48" rx="1.5"/><rect x="23" y="8" width="2.5" height="48" rx="1.2"/>
 <path d="M28 8h11.5C50.8 8 57 14.4 57 24.3 57 34.2 50.6 41 39.3 41H34v15h-6V8zm6 7v19h5c7.4 0 11.6-3.4 11.6-9.6C50.6 18.2 46.6 15 39 15h-5z"/>
</g>
<g transform="translate(42.5 24.6) rotate(-38)" filter="url(#softShadow)">
 <rect x="-7.8" y="-3.6" width="15.6" height="7.2" rx="3.6" fill="url(#capWhite)" stroke="#B9D5EE" stroke-width=".7"/>
 <path d="M-7.4-3.15h7.5v6.3h-7.5a3.15 3.15 0 0 1 0-6.3z" fill="url(#capBlue)"/>
 <path d="M.1-3.15v6.3" stroke="#B6D2EC" stroke-width=".7"/>
 <path d="M-5.8-2.1h4.6" stroke="#fff" stroke-width=".8" stroke-linecap="round" opacity=".65"/>
</g>
</svg>